<?xml version="1.0" encoding="iso-8859-1"?>
<!-- Generator: Adobe Illustrator 19.0.0, SVG Export Plug-In . SVG Version: 6.00 Build 0)  -->
<svg version="1.1" id="Layer_1" xmlns="http://www.w3.org/2000/svg" xmlns:xlink="http://www.w3.org/1999/xlink" x="0px" y="0px"
	 viewBox="0 0 512.011 512.011" style="enable-background:new 0 0 512.011 512.011;" xml:space="preserve">
<g>
	<g>
		<g>
			<path d="M505.755,240.855l-89.088-89.088c-4.437-4.437-9.109-8.491-13.824-12.501L144.773,397.335
				c34.432,19.328,72.789,29.227,111.232,29.227c58.197,0,116.373-22.165,160.661-66.453l89.088-89.088
				C514.096,262.679,514.096,249.196,505.755,240.855z M256.005,362.604c-11.776,0-21.333-9.557-21.333-21.333
				s9.557-21.333,21.333-21.333c35.285,0,64-28.715,64-64c0-11.776,9.557-21.333,21.333-21.333c11.776,0,21.333,9.557,21.333,21.333
				C362.672,314.753,314.821,362.604,256.005,362.604z"/>
			<path d="M95.344,151.767L6.256,240.855c-8.341,8.341-8.341,21.824,0,30.165l89.088,89.088c4.437,4.437,9.109,8.491,13.824,12.501
				L367.237,114.54C280.688,65.921,168.901,78.188,95.344,151.767z M256.005,191.937c-35.285,0-64,28.715-64,64
				c0,11.776-9.557,21.333-21.333,21.333s-21.333-9.557-21.333-21.333c0-58.816,47.851-106.667,106.667-106.667
				c11.776,0,21.333,9.557,21.333,21.333S267.781,191.937,256.005,191.937z"/>
		</g>
	</g>
</g>
<g>
</g>
<g>
</g>
<g>
</g>
<g>
</g>
<g>
</g>
<g>
</g>
<g>
</g>
<g>
</g>
<g>
</g>
<g>
</g>
<g>
</g>
<g>
</g>
<g>
</g>
<g>
</g>
<g>
</g>
</svg>
